<svg width="178" height="18" viewBox="0 0 178 18" fill="none" xmlns="http://www.w3.org/2000/svg">
<path fill-rule="evenodd" clip-rule="evenodd" d="M5.15386 15.8651H9.0725L3.96124 10.8419H0.0425939L5.15386 15.8651ZM8.81694 5.56745H4.8983L0 10.3814H3.91864L8.81694 5.56745ZM14.4393 0.0418701H10.5207L5.40943 5.10699H9.28547L14.4393 0.0418701ZM25.173 15.8651H29.0917L23.9804 10.8419H20.0617L25.173 15.8651ZM28.8361 5.56745H25.173L20.2747 10.3814H23.9378L28.8361 5.56745ZM34.4585 0.0418701H30.7954L25.6841 5.10699H29.3472L34.4585 0.0418701ZM19.0395 0.0418701H15.1208L10.0096 5.10699H13.9282L19.0395 0.0418701ZM15.1634 10.3814H18.8265L13.9282 5.56745H10.2651L15.1634 10.3814ZM20.7858 15.8651H24.4489L19.3376 10.8419H15.6746L20.7858 15.8651ZM39.0586 0.0418701H35.14L30.0287 5.10699H33.9474L39.0586 0.0418701ZM35.14 10.3814H38.8031L33.9474 5.56745H30.2843L35.14 10.3814ZM40.7624 15.8651H44.4255L39.3142 10.8419H35.6511L40.7624 15.8651Z" fill="#AFAEAE"/>
<path fill-rule="evenodd" clip-rule="evenodd" d="M4.42981 10.5907L9.54108 5.56745L14.6524 10.5907L9.54108 15.614L4.42981 10.5907ZM14.4394 5.31629L19.5507 0.29303L24.7045 5.31629L19.5507 10.3395L14.4394 5.31629ZM34.4585 5.31629L39.5698 0.29303L44.5533 5.1907L39.3994 10.214L34.4585 5.31629ZM39.8254 10.5907L44.9366 5.56745L50.0479 10.5907L44.9366 15.614L39.8254 10.5907ZM24.4064 10.5907L29.5176 5.56745L34.6289 10.5907L29.5176 15.614L24.4064 10.5907Z" fill="#861A22"/>
<path fill-rule="evenodd" clip-rule="evenodd" d="M55.5425 15.907H60.2704V3.43256H60.4408L63.2094 15.907H67.8521L70.7485 3.43256H70.8763V15.907H75.8172V0.0418605H67.5966L65.765 8.70698H65.6372L63.7631 0.0418605H55.5425V15.907ZM84.336 15.907H89.1065V8.33023C89.1065 4.77209 86.0397 3.76744 83.1007 3.76744C81.3544 3.76744 79.6506 4.0186 77.9895 4.47907V7.57674C79.1821 7.03256 80.4599 6.69767 81.7803 6.61395C82.8452 6.61395 84.336 6.82326 84.336 8.07907V8.45581H83.5693C80.8433 8.45581 76.6265 8.49767 76.6265 12.6C76.6265 14.5674 77.8191 16.1581 80.4173 16.1581C81.5674 16.1581 83.1433 15.9488 84.2082 14.4419H84.2934C84.336 14.4419 84.336 15.907 84.336 15.907ZM84.336 10.7163V11.386C84.336 12.7674 83.6119 13.3116 82.8878 13.3116C82.2489 13.3535 81.7377 12.893 81.6951 12.307C81.6951 12.2651 81.6951 12.2233 81.6951 12.1814C81.6951 10.6744 83.3563 10.7581 84.0804 10.7581L84.336 10.7163ZM95.5382 4.0186H90.3843V15.8651H95.5382V10.6326H95.666L98.6475 15.8651H104.355L100.607 9.83721L104.355 3.97674H98.6049L95.6234 9.16744H95.4956L95.5382 4.0186ZM114.067 12.1814C113.342 12.5581 112.533 12.7674 111.724 12.8093C110.02 12.8093 109.04 11.6372 109.04 10.0047C109.04 8.20465 110.19 7.2 111.766 7.2C112.533 7.2 113.3 7.4093 114.024 7.74419V4.31163C112.746 3.93488 111.426 3.76744 110.105 3.76744C104.781 3.76744 103.418 7.28372 103.418 9.92093C103.418 13.3535 105.548 16.2 110.148 16.2C111.468 16.2419 112.831 16.0326 114.067 15.614V12.1814ZM122.458 4.0186L120.03 9.58605H119.902V4.0186H115.131V15.907H120.285L122.67 10.3814H122.756V15.907H127.569V4.0186H122.458ZM150.058 3.76744C145.969 3.76744 143.329 6.11163 143.329 9.96279C143.329 13.814 145.927 16.1581 150.058 16.1581C154.19 16.1581 156.788 13.814 156.788 9.96279C156.788 6.11163 154.19 3.72558 150.058 3.76744ZM150.058 7.15814C151.166 7.15814 151.208 8.74884 151.208 9.96279C151.208 11.1767 151.166 12.7674 150.058 12.7674C148.951 12.7674 148.908 11.2186 148.908 9.96279C148.908 8.70698 148.951 7.15814 150.058 7.15814ZM157.725 15.907H162.453V3.43256H162.624L165.392 15.907H170.035L172.889 3.43256H173.017V15.907H178V0.0418605H169.779L167.99 8.70698H167.905L165.989 0H157.768L157.725 15.907ZM141.625 4.0186H131.019V7.91163C131.019 9.4186 130.976 11.1767 129.698 12.4744H128.421V18H133.149V15.8651H138.345V18H143.073V12.4744H141.625V4.0186ZM136.897 12.5163H134.213C135.065 11.2186 135.108 9.87907 135.108 8.66512V7.45116H136.854V12.5163H136.897Z" fill="#861A22"/>
</svg>
