<svg width="24" height="24" viewBox="0 0 24 24" fill="none" xmlns="http://www.w3.org/2000/svg">
<path d="M17.5 16C17.3 16 17.2 16 17 16C15.8 16 14.8 16.7 14.3 17.7C14.3 17.8 14.2 17.9 14.2 18H9.2L10.7 15.7L8.9 14.7L5.2 20.4C4.9 20.9 5 21.5 5.5 21.8C5.6 21.9 5.8 22 6 22C6.3 22 6.7 21.8 6.8 21.5L7.8 20H14.1C14.5 21.2 15.6 22 16.9 22C18.6 22 19.9 20.7 19.9 19C20 17.5 18.9 16.3 17.5 16ZM17 20C16.5 20 16 19.5 16 19C16 18.5 16.5 18 17 18C17.5 18 18 18.5 18 19C18 19.5 17.5 20 17 20Z" fill="#861A22"/>
<path d="M20 10.7L14.9 15.8L7.5 11.8L16 3.3L20 10.7Z" fill="#861A22"/>
<path d="M12.2 2.9L15.3 2.6L6.79999 11.1L7.09999 8L12.2 2.9Z" fill="#861A22"/>
</svg>
