<svg width="339" height="35" viewBox="0 0 339 35" fill="none" xmlns="http://www.w3.org/2000/svg">
<g clip-path="url(#clip0_1_12)">
<path d="M18.5423 30.7432L28.7199 20.571L38.8975 30.7432H55.0137L65.3179 20.4577L75.5822 30.7432H83.5803L94.1445 20.178L84.2201 10.2322L73.7293 20.7109L72.6829 19.665L83.1537 9.193L73.9825 0H56.7066L46.9756 9.75923L37.2046 0H20.1952L10.5575 9.63932L0 20.1913L10.5442 30.7432H18.5423ZM73.7559 20.7509L82.7605 29.7573H75.9821L66.9842 20.7509H73.7559ZM65.8845 19.645C64.918 18.6858 58.1996 11.9909 56.8866 10.6585H63.6383L72.6495 19.645H65.8845ZM72.1163 0.992577C70.7233 2.38485 63.7849 9.35954 63.5317 9.65265H56.7599C58.1596 8.25371 65.098 1.27903 65.3579 1.02588L72.1163 0.992577ZM57.1132 0.992577H63.8716C62.5386 2.3249 56.0201 8.8799 55.3403 9.56604H48.5685L57.1132 0.992577ZM47.5221 10.6053H54.2805L45.2493 19.645H38.4776L47.5221 10.6053ZM45.1427 20.6509L54.2405 29.7573H47.4755L41.4769 23.7619L38.3843 20.6509H45.1427ZM40.5904 24.2682L46.0691 29.7573H39.3241L30.3128 20.7509H37.0713L40.5904 24.2682ZM29.1998 19.645L20.2019 10.6585H26.9536L35.9915 19.645H29.1998ZM35.5249 0.992577C34.1319 2.39817 27.1603 9.35953 26.9003 9.61934H20.1486L25.1407 4.61648L28.7732 0.999239L35.5249 0.992577ZM20.6018 0.992577H27.3602L24.1143 4.24343L18.7289 9.61934H11.9972C13.3768 8.2204 20.3485 1.25904 20.6018 0.999239V0.992577ZM10.9707 10.6585H17.7225L8.71128 19.645H1.94621L10.9707 10.6585ZM8.69795 20.7375C9.6044 21.6368 16.3961 28.425 17.7225 29.7573H10.9507L1.93954 20.7375H8.69795Z" fill="#CC0033"/>
<path d="M104.622 30.8698H113.693V6.58831H113.973L119.265 30.8698H128.123L133.622 6.58831H133.862V30.8698H143.393V0.00666046H127.63L124.164 16.9071H123.991L120.385 0.00666046H104.622V30.8698Z" fill="#CC0033"/>
<path fill-rule="evenodd" clip-rule="evenodd" d="M159.776 30.8698H168.92V16.1344C168.92 8.89322 162.702 7.2145 156.696 7.2145C153.623 7.27024 150.572 7.74081 147.625 8.61344V14.6555C149.905 13.561 152.383 12.9422 154.91 12.8369C157.456 12.8369 159.949 13.3032 159.776 16.4008C153.717 16.4008 145.112 16.1077 145.112 24.4547C145.112 28.8447 148.045 31.3828 152.364 31.3828C155.49 31.3828 157.636 30.5301 159.609 28.052H159.749V30.8498L159.776 30.8698ZM159.776 20.7908V22.0832C159.776 23.8085 158.989 25.7937 156.976 25.7937C156.677 25.8131 156.376 25.7701 156.094 25.6676C155.812 25.5651 155.554 25.4051 155.336 25.1979C155.119 24.9907 154.947 24.7408 154.831 24.4638C154.715 24.1868 154.658 23.8888 154.663 23.5887C154.663 21.1172 156.87 20.7575 158.869 20.7575C159.169 20.7575 159.469 20.8041 159.776 20.7908V20.7908Z" fill="#CC0033"/>
<path d="M181.171 7.74077H171.333V30.8698H181.171V20.6842H181.351L187.089 30.8698H198.053L190.942 19.1121L198.053 7.74077H187.023L181.351 17.8531H181.171V7.74077Z" fill="#CC0033"/>
<path d="M216.616 23.5887C215.129 24.1683 213.77 24.7811 212.137 24.7811C208.904 24.7811 206.991 22.4762 206.991 19.3586C206.991 15.9012 208.991 13.8628 212.417 13.8628C213.833 13.8968 215.222 14.257 216.476 14.9153V8.30034C214.219 7.60372 211.873 7.23797 209.511 7.2145C201.712 7.2145 196.24 10.965 196.24 19.1454C196.24 26.8928 201.492 31.3961 209.091 31.3961C211.643 31.3909 214.18 31.0001 216.616 30.237V23.5754V23.5887Z" fill="#CC0033"/>
<path d="M232.652 7.74077L228.026 18.5858H227.78V7.74077H218.675V30.8698H228.553L233.138 20.0914H233.318V30.8698H242.456V7.74077H232.652Z" fill="#CC0033"/>
<path fill-rule="evenodd" clip-rule="evenodd" d="M285.526 7.2145C277.934 7.2145 272.676 11.4846 272.676 19.3186C272.676 27.1526 278.008 31.3961 285.526 31.3961C293.044 31.3961 298.45 27.0727 298.45 19.3186C298.45 11.5645 293.064 7.2145 285.526 7.2145V7.2145ZM285.526 13.8761C287.825 13.8761 287.699 17.7665 287.699 19.3319C287.699 20.8974 287.792 24.7944 285.526 24.7944C283.526 24.7944 283.32 22.0099 283.32 20.5577V18.0596C283.32 16.5674 283.526 13.8628 285.526 13.8628V13.8761Z" fill="#CC0033"/>
<path d="M300.236 30.8698H309.267V6.58831H309.547L314.872 30.8698H323.73L329.229 6.58831H329.476V30.8698H339V0.00666046H323.244L319.811 16.9071H319.631L315.959 0.00666046H300.236V30.8698Z" fill="#CC0033"/>
<path fill-rule="evenodd" clip-rule="evenodd" d="M269.35 7.74077H249.041C249.041 12.0308 250.054 20.5377 246.515 24.2549H244.062V35H253.1V30.8698H263.098V35H272.169V24.2549H269.37V7.74077H269.35ZM260.279 24.2549H255.2C257.086 21.0306 256.919 17.993 256.919 14.389H260.252V24.2549H260.279Z" fill="#CC0033"/>
</g>
<defs>
<clipPath id="clip0_1_12">
<rect width="339" height="35" fill="white"/>
</clipPath>
</defs>
</svg>
